{"title":"Old Dogs 2009 Cam Prism [myp2p.ca]","uid":5193511,"size":918750720,"categoryP":"video","categoryS":"movies","magnet":"?xt=urn:btih:3c455551568564758fd25afedd0a97f256701db9&amp;dn=Old+Dogs+2009+Cam+Prism+%5Bmyp2p.ca%5D&amp;tr=udp%3A%2F%2Ftracker.openbittorrent.com%3A80&amp;tr=udp%3A%2F%2Fopen.demonii.com%3A1337&amp;tr=udp%3A%2F%2Ftracker.coppersurfer.tk%3A6969&amp;tr=udp%3A%2F%2Fexodus.desync.com%3A6969","seeders":0,"leechers":0,"uploader":"IwannaFan2","files":1,"time":1259814192,"description":"I downloaded it at MYP2P.CA so you know its real.\nBest place to go for unlimited free movie downloads and streaming media.\nPlease seed and comments are appreciated.\nEnjoy!\n\nV=8 A=10\n\nVideo\nFormat                           : MPEG-4 Visual\nFormat profile                   : Simple@L3\nFormat settings, BVOP            : Yes\nFormat settings, QPel            : No\nFormat settings, GMC             : No warppoints\nFormat settings, Matrix          : Default (H.263)\nCodec ID                         : XVID\nCodec ID/Hint                    : XviD\nDuration                         : 1h 14mn\nBit rate                         : 1 501 Kbps\nWidth                            : 640 pixels\nHeight                           : 480 pixels\nDisplay aspect ratio             : 4:3\nFrame rate                       : 23.976 fps\nResolution                       : 24 bits\nScan type                        : Progressive\nBits/(Pixel*Frame)               : 0.204\nStream size                      : 801 MiB (91%)\n\nAudio\nID                               : 1\nFormat                           : MPEG Audio\nFormat version                   : Version 1\nFormat profile                   : Layer 3\nFormat_Settings_Mode             : Joint stereo / MS Stereo\nCodec ID                         : 55\nCodec ID/Hint                    : MP3\nDuration                         : 1h 14mn\nBit rate mode                    : Constant\nBit rate                         : 128 Kbps\nChannel(s)                       : 2 channels\nSampling rate                    : 44.1 KHz\nResolution                       : 16 bits\nStream size                      : 68.3 MiB (8%)\nAlignment                        : Aligned on interleaves\nInterleave, duration             : 26 ms (0.63 video frame)\nWriting library                  : LAME3.97","torrent":{"xt":"urn:btih:3c455551568564758fd25afedd0a97f256701db9","amp;dn":"Old+Dogs+2009+Cam+Prism+%5Bmyp2p.ca%5D","amp;tr":["udp%3A%2F%2Ftracker.openbittorrent.com%3A80","udp%3A%2F%2Fopen.demonii.com%3A1337","udp%3A%2F%2Ftracker.coppersurfer.tk%3A6969","udp%3A%2F%2Fexodus.desync.com%3A6969"],"infoHash":"3c455551568564758fd25afedd0a97f256701db9","infoHashBuffer":{"type":"Buffer","data":[60,69,85,81,86,133,100,117,143,210,90,254,221,10,151,242,86,112,29,185]},"announce":[],"urlList":[]}}